<?xml version="1.0" standalone="no"?>
<!DOCTYPE svg PUBLIC "-//W3C//DTD SVG 20010904//EN"
 "http://www.w3.org/TR/2001/REC-SVG-20010904/DTD/svg10.dtd">
<svg version="1.0" xmlns="http://www.w3.org/2000/svg"
 width="546.000000pt" height="260.000000pt" viewBox="0 0 546.000000 260.000000"
 preserveAspectRatio="xMidYMid meet">

<g transform="translate(0.000000,260.000000) scale(0.100000,-0.100000)"
fill="#000000" stroke="none">
<path d="M0 1300 l0 -1300 765 0 765 0 0 1300 0 1300 -765 0 -765 0 0 -1300z
m1520 0 l0 -1280 -750 0 -750 0 0 1280 0 1280 750 0 750 0 0 -1280z"/>
<path d="M805 2476 c-20 -31 -16 -85 8 -100 15 -9 23 -6 43 17 32 37 30 61 -6
87 l-29 21 -16 -25z m53 -34 c4 -26 -13 -52 -35 -52 -18 0 -27 24 -19 56 9 33
49 30 54 -4z"/>
<path d="M912 2487 c-21 -25 -25 -66 -8 -92 19 -29 38 -32 60 -9 27 26 20 54
-11 53 l-28 0 24 -10 c23 -9 23 -11 9 -26 -25 -24 -48 -9 -48 31 0 37 14 52
44 47 11 -1 16 2 12 8 -10 15 -41 14 -54 -2z"/>
<path d="M1045 2470 c-17 -26 -21 -27 -36 -15 -26 25 -31 17 -8 -14 12 -16 19
-36 16 -45 -3 -8 -2 -18 3 -21 6 -4 10 7 10 22 0 16 11 44 25 63 27 37 29 40
18 40 -5 0 -17 -13 -28 -30z"/>
<path d="M1179 2479 c-27 -27 -20 -43 19 -47 18 -2 32 -9 32 -16 0 -20 -27
-39 -45 -32 -8 3 -15 1 -15 -4 0 -21 50 -10 66 15 14 21 14 28 3 41 -7 9 -22
14 -36 11 -18 -3 -23 0 -21 12 2 9 13 17 26 19 12 2 20 8 17 13 -9 14 -23 11
-46 -12z"/>
<path d="M178 2443 c-3 -40 -6 -48 -23 -48 -16 0 -21 9 -26 45 -4 34 -7 41
-13 27 -14 -30 6 -82 32 -85 35 -5 52 15 52 64 0 59 -18 56 -22 -3z"/>
<path d="M232 2474 c-40 -28 -18 -104 30 -104 39 0 51 62 13 68 -20 4 -20 3
-1 -11 21 -16 14 -37 -13 -37 -20 0 -41 19 -41 37 0 21 38 53 55 47 8 -4 15
-1 15 5 0 16 -32 13 -58 -5z"/>
<path d="M380 2466 c0 -22 -16 -36 -41 -36 -5 0 -9 11 -9 25 0 14 -3 25 -7 25
-5 0 -6 -26 -3 -57 2 -33 6 -46 8 -30 3 21 9 27 27 27 18 0 25 -6 28 -27 2
-16 5 0 6 35 0 34 -1 62 -4 62 -3 0 -5 -11 -5 -24z"/>
<path d="M497 2483 c-2 -5 -2 -32 1 -60 4 -55 14 -63 56 -47 18 7 22 39 6 49
-8 5 -7 11 1 21 18 22 3 44 -30 44 -16 0 -32 -3 -34 -7z m58 -12 c3 -6 -2 -14
-12 -20 -17 -9 -16 -11 2 -31 16 -18 17 -23 5 -30 -30 -19 -40 -11 -40 33 0
24 3 47 7 50 9 10 31 8 38 -2z"/>
<path d="M636 2471 c-31 -34 -20 -100 17 -101 16 0 47 42 47 64 0 24 -23 56
-39 56 -4 0 -16 -9 -25 -19z m44 -16 c16 -19 -2 -65 -25 -65 -22 0 -30 27 -17
56 13 28 24 30 42 9z"/>
<path d="M718 2477 c-10 -22 -10 -69 -2 -91 7 -18 49 -22 60 -5 4 7 -2 9 -17
7 -22 -3 -24 1 -29 52 -3 38 -7 49 -12 37z"/>
<path d="M593 2430 c0 -30 2 -43 4 -27 2 15 2 39 0 55 -2 15 -4 2 -4 -28z"/>
<path d="M1137 2423 c8 -78 13 -80 13 -5 0 34 -4 62 -9 62 -6 0 -7 -25 -4 -57z"/>
<path d="M406 2375 c-3 -8 -1 -15 4 -15 6 0 10 7 10 15 0 8 -2 15 -4 15 -2 0
-6 -7 -10 -15z"/>
<path d="M165 2295 c-5 -2 -22 -6 -37 -9 -16 -4 -28 -11 -28 -16 0 -5 7 -7 15
-4 12 5 15 -4 16 -42 l1 -49 10 53 c6 34 14 52 24 52 8 0 14 5 14 10 0 6 -1
10 -2 9 -2 0 -7 -2 -13 -4z"/>
<path d="M231 2268 c-1 -21 -6 -28 -21 -28 -11 0 -20 5 -20 10 0 6 -4 10 -10
10 -5 0 -10 -21 -9 -47 0 -43 2 -45 10 -22 14 37 49 46 49 13 0 -13 4 -24 9
-24 5 0 6 21 4 48 -6 58 -11 76 -12 40z"/>
<path d="M283 2283 c-20 -4 -23 -10 -23 -57 0 -29 2 -55 5 -57 8 -9 75 3 75
13 0 5 -13 7 -30 3 -26 -6 -30 -4 -30 14 0 11 8 25 18 30 16 10 16 10 0 11
-10 0 -18 7 -18 15 0 10 10 15 30 15 17 0 30 5 30 10 0 10 -16 11 -57 3z"/>
<path d="M510 2268 c0 -50 -11 -68 -39 -66 -30 2 -41 14 -41 45 0 12 -4 25
-10 28 -6 4 -7 -6 -3 -27 10 -53 21 -68 53 -68 18 0 33 7 38 18 14 26 22 92
11 92 -5 0 -9 -10 -9 -22z"/>
<path d="M546 2268 c-18 -26 -21 -74 -5 -83 19 -12 58 5 65 28 7 21 8 21 17
-8 10 -29 11 -29 16 -6 l6 23 28 -27 c15 -15 27 -23 27 -16 0 6 -8 19 -18 29
-17 16 -17 18 2 33 25 21 15 49 -19 49 -13 0 -30 -8 -36 -19 -12 -18 -12 -18
-30 0 -25 25 -34 24 -53 -3z m52 -21 c4 -18 -23 -57 -38 -57 -14 0 -19 30 -10
56 11 29 43 30 48 1z m82 8 c-7 -8 -19 -15 -26 -15 -8 0 -14 7 -14 15 0 10 10
15 26 15 22 0 25 -2 14 -15z"/>
<path d="M729 2271 c-30 -24 -20 -54 16 -45 21 5 25 3 25 -14 0 -28 -15 -35
-42 -21 -21 11 -22 11 -9 -5 17 -20 50 -18 64 5 17 27 1 49 -34 49 -27 0 -30
2 -19 15 7 9 27 14 51 12 39 -2 39 -2 40 -47 l2 -45 6 45 c5 37 10 46 29 48
12 2 22 7 22 11 0 4 -22 5 -50 1 -27 -3 -56 -3 -64 2 -9 5 -22 1 -37 -11z"/>
<path d="M977 2283 c-2 -5 -2 -32 1 -60 4 -51 5 -53 33 -53 21 0 32 6 38 22 6
18 9 19 14 5 9 -24 43 -21 61 5 l16 22 0 -25 c0 -14 3 -28 6 -32 11 -11 55 16
69 42 l14 26 1 -27 c0 -15 5 -30 10 -33 6 -4 10 16 10 51 0 43 -3 55 -11 47
-9 -9 -18 -8 -35 3 -27 18 -64 10 -64 -14 -1 -16 -2 -15 -11 1 -16 27 -48 21
-62 -12 -10 -22 -15 -26 -24 -16 -8 9 -8 16 -1 23 6 6 7 15 4 21 -8 12 -63 15
-69 4z m53 -13 c0 -6 -7 -13 -15 -16 -19 -8 -20 -24 -1 -24 22 0 30 -19 16
-35 -25 -30 -40 -17 -40 35 0 43 3 50 20 50 11 0 20 -5 20 -10z m90 -29 c0 -9
-7 -26 -15 -37 -13 -16 -16 -17 -25 -4 -14 21 -12 36 6 54 18 19 34 13 34 -13z
m88 6 c4 -18 -33 -67 -50 -67 -4 0 -8 21 -8 46 0 44 1 45 27 42 18 -2 29 -10
31 -21z"/>
<path d="M1355 2270 c-24 -27 -13 -50 25 -50 20 0 30 -5 30 -15 0 -18 -36 -39
-45 -25 -3 5 -24 10 -46 10 -32 0 -39 4 -39 19 0 11 6 22 13 24 10 4 10 6 0 6
-28 2 -12 30 20 34 28 3 26 4 -10 5 l-43 2 0 -56 0 -57 44 5 c25 3 49 1 54 -4
14 -14 50 0 63 23 16 30 4 52 -26 46 -14 -2 -28 0 -32 6 -7 12 26 39 38 31 5
-3 9 0 9 5 0 18 -36 12 -55 -9z"/>
<path d="M860 2179 c0 -5 5 -7 10 -4 6 3 10 8 10 11 0 2 -4 4 -10 4 -5 0 -10
-5 -10 -11z"/>
<path d="M902 2100 c-38 -9 -54 -20 -29 -20 13 0 17 -10 17 -45 0 -25 5 -45
10 -45 6 0 10 23 10 50 0 38 4 50 15 50 8 0 15 5 15 10 0 6 -1 10 -2 9 -2 -1
-18 -5 -36 -9z"/>
<path d="M345 2067 c-8 -20 -15 -42 -15 -48 0 -21 -14 1 -26 39 -7 20 -12 29
-13 19 -1 -17 -2 -17 -17 -3 -35 35 -65 6 -63 -61 1 -23 3 -29 6 -15 3 14 12
22 24 22 10 0 22 0 27 1 4 0 10 -10 14 -23 5 -19 6 -17 7 12 l2 35 15 -34 c8
-19 16 -32 18 -30 3 2 14 28 26 58 23 60 19 85 -5 28z m-75 -18 c0 -5 -9 -9
-20 -9 -19 0 -27 20 -13 33 7 8 33 -11 33 -24z"/>
<path d="M566 2085 c-17 -17 -31 -77 -23 -97 3 -7 6 -3 6 8 1 14 9 24 24 28
33 9 34 8 42 -21 7 -26 8 -26 15 -8 7 17 9 17 9 3 1 -19 24 -22 56 -7 17 7 15
8 -10 6 -29 -2 -30 -1 -33 46 -3 53 -22 65 -22 15 l-1 -33 -13 31 c-18 41 -31
48 -50 29z m34 -31 c0 -8 -9 -14 -20 -14 -18 0 -19 3 -10 20 12 22 30 18 30
-6z"/>
<path d="M717 2069 c-10 -51 6 -89 37 -89 14 0 28 5 31 10 4 6 -6 10 -24 10
-29 0 -30 1 -33 53 -3 51 -3 51 -11 16z"/>
<path d="M1045 2091 c-16 -4 -29 -10 -27 -14 1 -4 2 -29 2 -56 l0 -49 70 0
c76 1 94 11 88 50 -2 19 -8 22 -32 20 -34 -4 -32 17 5 35 22 12 22 13 3 13
-11 0 -29 -6 -39 -14 -27 -19 -13 -46 25 -46 33 0 40 -19 14 -41 -11 -9 -21
-10 -32 -3 -9 6 -31 7 -49 4 -36 -8 -43 -5 -43 21 0 10 9 19 23 22 l22 4 -22
2 c-34 2 -28 29 9 39 39 10 25 21 -17 13z"/>
<path d="M1213 2090 c-20 -8 -23 -17 -23 -65 0 -54 1 -55 28 -54 15 0 36 5 47
10 16 7 12 8 -17 6 -35 -3 -38 -1 -38 24 0 18 6 29 18 32 16 4 16 5 0 6 -10 0
-18 8 -18 16 0 11 11 15 38 15 27 0 33 3 22 10 -18 12 -28 12 -57 0z"/>
<path d="M112 2035 c-2 -34 1 -55 7 -55 6 0 11 11 11 25 0 20 5 25 25 25 20 0
25 -5 25 -25 0 -14 5 -25 10 -25 12 0 12 67 0 95 -8 19 -9 19 -9 -1 -1 -20
-18 -34 -42 -34 -5 0 -9 11 -9 25 0 49 -15 24 -18 -30z"/>
<path d="M386 2083 c-15 -4 -17 -11 -12 -41 3 -21 6 -45 6 -54 0 -20 40 -24
75 -7 15 7 9 8 -22 5 -40 -4 -43 -2 -43 19 0 14 7 25 18 28 16 4 16 5 0 6 -30
2 -20 27 15 39 28 9 29 10 7 10 -14 0 -33 -2 -44 -5z"/>
<path d="M991 2068 c-1 -21 -6 -28 -21 -28 -11 0 -20 7 -20 15 0 8 -4 15 -10
15 -5 0 -10 -21 -10 -46 0 -27 4 -43 10 -39 6 3 10 13 10 21 0 8 9 14 20 14
13 0 20 -7 20 -20 0 -11 4 -20 9 -20 5 0 6 21 4 48 -6 58 -11 76 -12 40z"/>
<path d="M611 1879 c-20 -22 -21 -22 -41 -4 -20 18 -20 18 -18 -46 1 -55 2
-57 5 -18 4 41 7 46 24 42 11 -3 28 2 40 13 20 18 20 18 14 -33 -5 -33 -3 -53
4 -57 8 -5 11 11 11 53 0 68 -10 81 -39 50z"/>
<path d="M123 1883 c-9 -3 -13 -23 -12 -56 1 -29 4 -42 6 -29 5 27 13 28 42 1
29 -27 39 -17 11 11 l-21 21 22 18 c13 10 19 23 15 29 -7 12 -40 15 -63 5z
m38 -18 c0 -13 -41 -19 -41 -7 0 11 20 22 33 18 5 -1 8 -6 8 -11z"/>
<path d="M211 1853 c-6 -21 -11 -47 -10 -58 0 -19 1 -18 11 3 6 12 20 22 30
22 10 0 23 -10 28 -22 8 -22 9 -22 9 5 1 35 -25 87 -44 87 -8 0 -19 -17 -24
-37z m42 3 c3 -8 -1 -17 -10 -20 -20 -8 -27 -1 -20 19 8 19 23 20 30 1z"/>
<path d="M348 1877 c-5 -10 -8 -28 -8 -40 -1 -20 -2 -20 -16 6 -22 40 -34 33
-33 -20 l2 -48 6 39 6 39 18 -38 c23 -49 39 -35 35 31 -2 34 -5 43 -10 31z"/>
<path d="M377 1883 c-4 -3 -7 -30 -7 -60 0 -41 3 -53 15 -53 25 0 65 46 65 74
0 33 -52 61 -73 39z m59 -28 c8 -20 -22 -65 -42 -65 -12 0 -15 6 -10 23 3 12
6 30 6 40 0 21 38 23 46 2z"/>
<path d="M470 1870 c-15 -29 -9 -71 13 -84 15 -9 22 -7 38 13 21 26 17 57 -10
78 -22 17 -29 16 -41 -7z m45 -40 c0 -18 -6 -26 -22 -28 -18 -3 -23 1 -23 21
0 28 9 39 30 35 9 -2 15 -14 15 -28z"/>
<path d="M717 1883 c-2 -5 -1 -30 3 -58 4 -27 8 -40 9 -27 0 13 7 22 18 22 9
0 25 7 35 17 17 15 18 14 19 -28 1 -37 2 -39 8 -16 l6 29 28 -22 c15 -12 27
-17 27 -11 0 6 -9 16 -20 23 -20 13 -20 13 2 29 13 10 19 22 15 33 -7 18 -47
22 -64 5 -8 -8 -13 -8 -17 0 -8 12 -63 15 -69 4z m57 -18 c6 -18 -29 -41 -39
-25 -10 16 2 40 19 40 7 0 16 -7 20 -15z m81 5 c3 -6 -4 -14 -17 -19 -27 -10
-33 -7 -25 14 7 17 33 20 42 5z"/>
<path d="M993 1882 c-20 -3 -23 -9 -23 -53 0 -37 4 -51 16 -56 31 -11 49 11
49 60 1 48 -5 55 -42 49z m17 -27 c-11 -13 -10 -18 6 -29 15 -12 16 -16 5 -30
-22 -27 -31 -18 -31 29 0 35 4 45 16 45 14 0 14 -3 4 -15z"/>
<path d="M1056 1857 c-5 -25 -5 -47 2 -62 10 -21 17 -23 82 -24 39 0 69 3 66
8 -3 5 -17 6 -31 3 -22 -4 -25 -1 -25 23 0 20 4 26 15 21 8 -3 15 -1 15 4 0 6
-7 10 -15 10 -24 0 -17 30 8 31 12 1 25 1 30 0 4 0 7 4 7 9 0 11 -30 13 -54 4
-11 -4 -16 -19 -16 -53 l0 -47 -35 4 c-33 4 -34 5 -37 56 l-3 51 -9 -38z"/>
<path d="M1277 1870 c-12 -18 -16 -19 -27 -5 -20 24 -30 7 -28 -48 1 -44 2
-46 5 -14 4 31 7 37 23 32 12 -4 25 3 39 22 l22 28 -6 -55 c-3 -38 -2 -49 4
-35 5 11 10 37 10 58 1 42 -19 50 -42 17z"/>
<path d="M1340 1865 c-12 -32 -6 -45 21 -45 10 0 19 -6 19 -14 0 -20 -40 -32
-51 -15 -7 11 -9 11 -9 -2 0 -38 62 -29 75 11 8 26 -1 40 -26 40 -11 0 -19 7
-19 16 0 12 6 15 21 11 13 -3 19 -1 16 6 -8 24 -37 19 -47 -8z"/>
<path d="M891 1866 c-26 -31 -12 -95 20 -96 15 0 49 44 49 65 0 37 -47 58 -69
31z m53 -22 c7 -19 -20 -54 -41 -54 -14 0 -17 27 -7 54 8 21 40 21 48 0z"/>
<path d="M1405 1780 c-3 -5 -1 -10 4 -10 6 0 11 5 11 10 0 6 -2 10 -4 10 -3 0
-8 -4 -11 -10z"/>
<path d="M752 1593 c1 -133 -15 -214 -62 -325 -16 -38 -30 -77 -30 -87 1 -33
79 166 94 241 17 83 22 288 7 288 -6 0 -9 -51 -9 -117z"/>
<path d="M474 1096 c-50 -22 -79 -79 -79 -156 0 -103 46 -160 130 -160 19 0
35 -3 35 -6 0 -3 -16 -26 -36 -50 l-37 -44 -35 40 c-19 23 -37 38 -40 35 -3
-3 -17 5 -30 17 -27 25 -27 20 3 -30 68 -116 75 -124 91 -111 12 10 19 8 38
-10 l24 -22 21 63 20 63 -3 -85 c-3 -65 -12 -109 -39 -188 l-35 -102 34 -15
34 -14 1 -78 c0 -43 5 -87 10 -98 6 -14 8 10 5 73 -3 50 -2 92 0 92 3 0 28
-10 55 -21 70 -30 71 -18 1 15 l-58 28 4 231 5 232 43 40 c48 45 59 75 52 144
-10 106 -111 161 -214 117z m154 -29 c80 -74 66 -176 -33 -244 -61 -43 -95
-43 -142 1 -33 30 -37 39 -41 93 -7 104 23 159 96 174 52 10 92 3 120 -24z
m-78 -374 c-22 -72 -19 -68 -37 -50 -15 15 -14 19 12 57 33 48 41 46 25 -7z
m-96 3 c14 -19 22 -37 17 -40 -9 -6 -32 17 -50 52 -18 34 3 26 33 -12z m116
-281 c0 -77 -4 -84 -33 -62 -15 11 -15 17 6 75 12 34 23 62 24 62 2 0 3 -34 3
-75z"/>
<path d="M1073 974 c-3 -8 -1 -20 6 -27 28 -28 12 -37 -73 -37 l-83 0 -7 -46
c-3 -26 -6 -69 -6 -95 l0 -49 60 0 c48 0 60 -3 60 -16 0 -14 -11 -16 -72 -13
l-73 4 0 -27 c1 -20 -4 -28 -17 -28 -14 0 -18 -8 -17 -37 2 -58 14 -98 28 -95
10 2 12 -15 10 -70 -2 -40 0 -79 4 -85 6 -9 1 -13 -17 -13 -25 0 -26 -3 -26
-55 0 -44 3 -55 16 -55 12 0 14 -5 9 -17 -15 -36 -11 -58 13 -61 33 -5 54 17
50 50 -4 22 -1 28 14 28 21 0 22 -4 6 -29 -25 -40 33 -69 68 -34 13 13 19 14
22 5 2 -6 19 -12 37 -12 37 0 49 17 39 57 -5 19 -3 24 7 21 7 -2 13 -19 13
-39 1 -28 5 -35 24 -37 41 -6 49 12 51 103 l1 85 -33 1 c-17 0 -26 3 -19 6 8
3 12 28 12 73 0 51 4 69 15 74 11 4 15 22 15 71 0 36 -4 65 -9 65 -5 0 -11 12
-13 28 -3 25 -6 27 -40 25 -21 -1 -38 2 -38 7 0 6 11 10 24 10 28 0 36 28 36
131 l0 69 -34 0 c-34 0 -34 1 -26 31 5 18 7 36 4 40 -9 15 -34 10 -41 -7z m27
-4 c0 -5 -5 -10 -11 -10 -5 0 -7 5 -4 10 3 6 8 10 11 10 2 0 4 -4 4 -10z m60
-107 c0 -16 -3 -52 -6 -80 l-7 -53 -114 0 c-101 0 -114 2 -109 16 3 9 6 25 6
36 0 19 4 20 70 14 l70 -7 0 35 0 36 -57 -1 c-32 -1 -48 -4 -35 -6 33 -6 30
-43 -3 -41 -19 2 -25 8 -25 25 0 12 -4 25 -10 28 -29 18 0 25 105 25 l115 0 0
-27z m-223 -40 c-3 -10 -5 -4 -5 12 0 17 2 24 5 18 2 -7 2 -21 0 -30z m93 7
c0 -11 -4 -20 -10 -20 -5 0 -10 9 -10 20 0 11 5 20 10 20 6 0 10 -9 10 -20z
m30 -5 c0 -14 -4 -25 -10 -25 -5 0 -10 11 -10 25 0 14 5 25 10 25 6 0 10 -11
10 -25z m34 -120 c4 -11 -2 -15 -24 -15 -29 0 -38 9 -23 23 12 12 41 7 47 -8z
m79 -32 c2 -5 0 -74 -6 -155 l-11 -147 -127 -3 -128 -3 0 158 -1 157 135 0
c73 0 136 -3 138 -7z m-283 -98 c0 -30 -4 -55 -10 -55 -5 0 -10 25 -10 55 0
30 5 55 10 55 6 0 10 -25 10 -55z m301 -35 c-9 -23 -10 -21 -10 17 -1 56 13
91 17 43 2 -20 -1 -47 -7 -60z m-52 -184 c-2 -2 -53 -6 -114 -9 -63 -3 -99 -2
-85 3 24 8 208 14 199 6z m61 -55 l0 -39 -137 -7 c-76 -4 -151 -7 -168 -8 -28
-2 -30 0 -33 40 l-3 42 103 4 c57 1 133 4 171 5 l67 2 0 -39z m-149 -74 c-1
-4 -1 -15 -1 -24 0 -15 -2 -16 -10 -3 -13 20 -13 43 1 38 6 -2 10 -7 10 -11z
m59 -39 c0 -13 -7 -18 -25 -18 -18 0 -25 5 -25 19 0 11 5 23 10 26 6 4 7 12 3
18 -3 7 3 3 15 -7 12 -11 22 -27 22 -38z m89 33 c17 -11 -2 -51 -25 -51 -20 0
-29 27 -14 45 14 17 20 18 39 6z m-181 -29 c3 -18 -2 -22 -22 -22 -28 0 -34
18 -14 38 17 17 32 10 36 -16z m-93 8 c8 -13 -13 -40 -31 -40 -14 0 -19 31 -7
43 10 10 31 8 38 -3z"/>
<path d="M1078 623 c7 -3 16 -2 19 1 4 3 -2 6 -13 5 -11 0 -14 -3 -6 -6z"/>
<path d="M1143 585 c0 -27 2 -38 4 -22 2 15 2 37 0 50 -2 12 -4 0 -4 -28z"/>
<path d="M1014 498 l1 -43 48 -1 47 -1 -44 4 c-44 4 -45 5 -49 44 l-4 39 1
-42z"/>
<path d="M1132 500 c0 -19 2 -27 5 -17 2 9 2 25 0 35 -3 9 -5 1 -5 -18z"/>
<path d="M1075 200 c-3 -5 1 -10 10 -10 9 0 13 5 10 10 -3 6 -8 10 -10 10 -2
0 -7 -4 -10 -10z"/>
<path d="M1170 200 c0 -5 5 -10 10 -10 6 0 10 5 10 10 0 6 -4 10 -10 10 -5 0
-10 -4 -10 -10z"/>
<path d="M990 189 c0 -5 5 -7 10 -4 6 3 10 8 10 11 0 2 -4 4 -10 4 -5 0 -10
-5 -10 -11z"/>
<path d="M890 190 c0 -5 5 -10 10 -10 6 0 10 5 10 10 0 6 -4 10 -10 10 -5 0
-10 -4 -10 -10z"/>
<path d="M1257 565 c10 -40 10 -133 0 -170 -7 -24 -6 -28 4 -17 21 20 24 141
5 182 -15 33 -16 33 -9 5z"/>
<path d="M1314 478 c0 -50 0 -51 9 -20 6 19 6 40 1 52 -7 15 -9 7 -10 -32z"/>
<path d="M1381 464 c0 -11 3 -14 6 -6 3 7 2 16 -1 19 -3 4 -6 -2 -5 -13z"/>
<path d="M1620 1300 l0 -1300 720 0 720 0 -2 1298 -3 1297 -717 3 -718 2 0
-1300z m1420 0 l0 -1280 -700 0 -700 0 0 1280 0 1280 700 0 700 0 0 -1280z"/>
<path d="M2065 2485 c-27 -12 -28 -13 -7 -14 22 -1 23 -4 16 -46 -4 -30 -3
-45 5 -45 7 0 11 20 11 50 0 43 3 50 20 50 11 0 20 5 20 10 0 14 -29 12 -65
-5z"/>
<path d="M2148 2489 c-19 -10 -24 -61 -11 -96 6 -15 8 -13 13 12 l5 30 29 -28
c31 -31 50 -29 22 2 -15 16 -15 22 -4 40 12 19 13 18 23 -22 12 -50 43 -62 69
-25 18 26 21 74 5 84 -8 4 -9 -3 -5 -23 5 -21 2 -36 -12 -53 -24 -30 -42 -19
-42 28 0 30 -5 39 -27 50 -32 14 -42 15 -65 1z m50 -21 c-7 -20 -48 -23 -48
-4 0 11 9 16 26 16 16 0 24 -5 22 -12z"/>
<path d="M2503 2493 c-26 -5 -31 -23 -7 -23 14 0 16 -7 11 -45 -4 -27 -3 -45
3 -45 6 0 10 22 10 48 0 41 4 51 23 60 20 10 20 11 2 10 -11 0 -30 -3 -42 -5z"/>
<path d="M2750 2493 c-31 -6 -51 -23 -27 -23 12 0 17 -9 17 -32 0 -18 5 -40
10 -48 7 -11 10 0 10 38 0 45 3 52 20 52 11 0 20 5 20 10 0 10 -6 11 -50 3z"/>
<path d="M2862 2440 c0 -58 1 -61 9 -29 4 20 4 49 -1 65 -7 23 -8 16 -8 -36z"/>
<path d="M2913 2493 c-21 -4 -23 -9 -22 -66 1 -34 4 -50 6 -36 2 15 14 31 26
37 l22 11 -22 0 c-16 1 -23 7 -23 21 0 16 7 20 31 20 17 0 28 4 24 10 -3 6 -9
9 -13 9 -4 -1 -17 -4 -29 -6z"/>
<path d="M1721 2430 l1 -65 9 49 c4 29 4 56 -1 65 -6 11 -9 -5 -9 -49z"/>
<path d="M1760 2471 c-15 -30 -2 -52 26 -45 18 5 24 2 24 -10 0 -22 -34 -38
-50 -23 -10 9 -12 9 -8 -3 7 -23 35 -23 58 0 27 27 22 44 -14 48 -34 4 -32 33
4 43 l25 7 -27 1 c-17 1 -31 -6 -38 -18z"/>
<path d="M1897 2483 c-11 -10 -8 -91 3 -98 6 -4 10 15 10 49 0 57 -1 61 -13
49z"/>
<path d="M1925 2480 c-3 -5 -1 -10 4 -10 6 0 11 -21 12 -47 0 -36 3 -43 9 -28
5 11 9 34 9 52 1 25 6 33 24 36 14 3 8 5 -15 6 -20 0 -40 -3 -43 -9z"/>
<path d="M2320 2430 l0 -60 40 0 c22 0 40 5 40 10 0 6 -15 9 -32 8 -28 -3 -34
1 -36 20 -2 16 2 22 14 22 16 0 16 1 -2 14 -23 18 -12 33 31 39 24 3 21 4 -12
6 l-43 1 0 -60z"/>
<path d="M2610 2471 c0 -17 -18 -31 -40 -31 -5 0 -11 8 -13 18 -3 9 -5 -3 -4
-28 0 -25 2 -35 4 -22 3 16 11 22 29 22 21 0 24 -3 18 -25 -4 -15 -2 -25 5
-25 7 0 11 21 11 55 0 30 -2 55 -5 55 -3 0 -5 -9 -5 -19z"/>
<path d="M2650 2475 c-6 -8 -14 -34 -16 -57 -3 -33 -2 -38 5 -21 8 18 48 41
55 31 1 -1 8 -14 14 -28 12 -24 12 -23 7 9 -6 37 -30 81 -44 81 -5 0 -14 -7
-21 -15z m37 -22 c2 -6 -5 -13 -17 -16 -22 -6 -23 -5 -14 18 7 17 25 16 31 -2z"/>
<path d="M2508 2281 c-15 -25 -36 -27 -44 -6 -19 50 -32 -29 -14 -85 7 -21 8
-19 9 17 1 34 4 41 17 36 8 -3 25 4 40 17 l24 23 0 -51 c0 -28 5 -54 11 -57 7
-5 9 14 7 57 -2 50 -7 63 -20 66 -9 2 -23 -6 -30 -17z"/>
<path d="M2795 2293 c-34 -9 -40 -20 -37 -67 4 -46 4 -46 41 -45 30 2 31 3 9
6 -29 5 -40 37 -15 46 9 4 9 8 -2 15 -17 12 -6 32 20 32 10 0 19 5 19 10 0 10
-3 11 -35 3z"/>
<path d="M1735 2270 c-24 -27 -13 -54 20 -46 29 7 35 -14 9 -35 -13 -10 -19
-10 -36 0 -16 10 -19 10 -16 -1 8 -23 55 -21 72 3 13 20 16 20 22 6 7 -20 44
-23 62 -5 7 7 12 24 12 38 0 54 -50 68 -70 19 -7 -17 -16 -26 -19 -21 -3 6
-20 12 -36 14 l-30 3 35 23 c29 18 31 22 14 22 -11 0 -29 -9 -39 -20z m133
-36 c3 -23 -21 -49 -38 -39 -11 7 -14 48 -3 59 13 13 38 1 41 -20z"/>
<path d="M1900 2279 c0 -9 -3 -37 -6 -63 -5 -31 -3 -46 5 -46 6 0 11 17 11 41
0 37 2 40 16 28 14 -11 19 -10 34 9 10 12 21 22 24 22 2 0 7 -21 9 -47 3 -47
3 -47 5 10 2 63 -14 76 -42 35 l-15 -21 -20 24 c-16 18 -20 20 -21 8z"/>
<path d="M2033 2283 c-20 -4 -23 -10 -23 -57 l0 -52 74 0 c57 1 79 5 94 19 20
18 20 18 25 0 3 -13 7 -9 12 15 l8 33 18 -31 c26 -41 39 -30 39 33 0 37 -3 48
-10 37 -5 -8 -10 -28 -11 -45 l-1 -30 -15 38 c-18 42 -28 47 -36 16 l-6 -20
-20 20 c-12 12 -27 21 -35 21 -20 0 -46 -39 -46 -67 0 -20 -5 -23 -35 -23 -28
0 -35 4 -35 20 0 11 7 20 16 20 8 0 12 5 9 10 -4 6 -11 8 -16 5 -5 -4 -9 1 -9
9 0 9 8 16 18 16 9 0 24 5 32 10 12 8 11 9 -5 8 -11 0 -30 -3 -42 -5z m129
-30 c23 -21 23 -36 -2 -58 -21 -19 -50 -14 -50 9 0 18 21 66 28 66 3 0 14 -7
24 -17z"/>
<path d="M2297 2283 c-4 -3 -7 -30 -7 -60 l0 -53 40 0 c22 0 40 5 40 11 0 6
-14 9 -32 7 -24 -2 -33 1 -36 15 -2 10 3 17 12 17 9 0 16 5 16 10 0 6 -7 10
-15 10 -28 0 -15 29 18 39 l32 9 -31 1 c-17 1 -34 -2 -37 -6z"/>
<path d="M2670 2238 c0 -32 4 -58 10 -58 6 0 10 7 10 15 0 8 4 15 9 15 5 0 14
-7 21 -15 7 -8 17 -15 23 -15 6 0 -1 13 -16 28 l-27 28 22 22 c13 12 17 22 11
22 -6 0 -16 -7 -24 -16 -11 -14 -14 -13 -25 8 -12 21 -13 18 -14 -34z"/>
<path d="M2852 2278 c-7 -7 -12 -20 -12 -30 0 -14 8 -18 35 -18 38 0 44 -10
19 -35 -12 -11 -20 -13 -27 -6 -17 17 -31 13 -17 -4 20 -24 53 -14 64 18 12
33 -5 50 -41 42 -35 -8 -27 14 10 30 30 13 31 14 7 15 -15 0 -31 -5 -38 -12z"/>
<path d="M2591 2266 c-7 -8 -14 -31 -18 -53 -5 -37 -5 -38 11 -15 10 12 25 22
35 22 10 0 23 -10 29 -22 11 -23 11 -23 11 4 2 64 -38 101 -68 64z m42 -10 c4
-9 -2 -17 -14 -21 -27 -9 -35 0 -19 20 16 19 26 19 33 1z"/>
<path d="M2903 2089 c-18 -5 -35 -14 -39 -20 -4 -7 0 -9 14 -5 20 7 20 4 15
-50 -5 -42 -3 -55 5 -50 7 4 12 31 12 62 0 47 3 54 19 54 11 0 23 5 26 10 7
12 -8 12 -52 -1z"/>
<path d="M1740 2066 c-5 -13 -11 -41 -15 -62 -4 -31 -3 -34 4 -16 12 26 61 32
61 7 0 -8 5 -15 10 -15 13 0 13 -3 -5 58 -17 57 -39 68 -55 28z m40 -28 c0 -5
-7 -8 -15 -8 -15 0 -20 21 -8 33 7 7 23 -11 23 -25z"/>
<path d="M1930 2065 c0 -14 -2 -25 -4 -25 -2 0 -11 -3 -20 -6 -12 -5 -16 0
-16 20 0 14 -4 26 -10 26 -5 0 -10 -24 -10 -54 0 -30 5 -58 10 -61 6 -4 10 7
10 24 0 24 4 31 20 31 15 0 20 -7 20 -25 0 -14 4 -25 9 -25 5 0 9 27 10 60 0
33 -4 60 -9 60 -6 0 -10 -11 -10 -25z"/>
<path d="M2148 2083 c-27 -4 -28 -7 -28 -59 l0 -54 43 1 42 2 -35 6 c-42 7
-56 41 -18 42 l23 0 -23 10 c-32 12 -23 33 16 37 18 2 30 8 27 13 -4 5 -9 8
-13 8 -4 -1 -19 -4 -34 -6z"/>
<path d="M2368 2043 l-3 -48 -24 45 c-21 40 -25 43 -32 25 -11 -29 -11 -85 1
-85 6 0 10 15 11 33 l0 32 16 -32 c28 -56 53 -38 53 38 0 55 -18 49 -22 -8z"/>
<path d="M2721 2058 c0 -24 -9 -45 -23 -58 -22 -20 -23 -20 -36 -3 -8 11 -11
31 -8 51 3 19 1 30 -5 27 -15 -10 -11 -81 6 -95 12 -10 21 -10 40 -2 27 13 39
45 32 88 -3 25 -4 24 -6 -8z"/>
<path d="M1964 2056 c-3 -13 -4 -37 -2 -52 4 -37 39 -45 61 -14 l15 22 7 -21
c4 -15 15 -21 36 -21 16 0 29 5 29 10 0 6 -11 8 -25 4 -24 -6 -25 -4 -26 47
-1 30 -4 42 -6 28 l-4 -27 -24 24 c-31 31 -53 31 -61 0z m51 -32 c0 -22 -5
-29 -20 -29 -23 0 -32 30 -14 51 18 22 34 11 34 -22z"/>
<path d="M2277 2073 c-4 -3 -6 -29 -6 -57 l1 -51 9 54 c9 54 8 67 -4 54z"/>
<path d="M2470 2070 c0 -9 5 -21 11 -27 6 -6 15 -26 19 -45 7 -28 8 -29 9 -8
1 14 12 38 25 53 l22 28 0 -48 c-1 -38 3 -48 17 -51 24 -5 57 26 57 53 0 50
-77 72 -106 31 l-15 -21 -19 25 c-14 17 -20 20 -20 10z m140 -29 c7 -15 5 -25
-9 -42 -19 -24 -41 -19 -41 11 0 48 30 67 50 31z"/>
<path d="M2838 2025 c-1 -30 0 -55 5 -55 4 0 7 25 7 55 0 71 -7 71 -12 0z"/>
<path d="M2727 1984 c-4 -4 -7 -17 -7 -28 1 -19 1 -20 11 -3 11 19 8 43 -4 31z"/>
<path d="M1783 1897 c-24 -5 -43 -14 -43 -19 0 -5 9 -7 20 -3 15 5 21 0 26
-20 8 -34 -11 -79 -31 -71 -8 3 -15 1 -15 -4 0 -14 34 -12 48 2 7 7 12 34 12
60 0 45 2 48 25 48 14 0 25 5 25 10 0 12 -10 11 -67 -3z"/>
<path d="M2606 1884 c-9 -8 -16 -19 -16 -23 0 -17 30 -32 50 -26 24 8 28 -16
5 -35 -12 -10 -18 -10 -30 0 -12 10 -15 10 -15 -3 0 -34 63 -24 75 12 9 29 -1
41 -36 41 -38 0 -34 24 4 28 15 2 25 8 22 13 -9 14 -42 11 -59 -7z"/>
<path d="M2850 1885 c-11 -13 -15 -13 -21 -3 -6 8 -9 -2 -9 -28 0 -50 -22 -85
-42 -66 -7 7 -13 33 -13 57 0 23 -3 41 -7 38 -5 -2 -8 -20 -8 -39 0 -82 49
-101 80 -31 l20 42 1 -40 c2 -30 3 -33 6 -12 2 15 10 27 18 27 7 0 23 8 36 19
20 16 21 21 10 35 -17 20 -55 21 -71 1z m57 -18 c-1 -5 -13 -14 -25 -18 -18
-7 -22 -5 -22 10 0 11 6 21 13 24 17 6 38 -4 34 -16z"/>
<path d="M1906 1861 c7 -35 -12 -73 -34 -69 -12 2 -19 17 -23 48 -5 41 -6 43
-13 18 -8 -28 10 -78 31 -85 23 -8 53 35 53 77 0 22 -4 40 -10 40 -5 0 -7 -13
-4 -29z"/>
<path d="M1952 1867 c-30 -32 -28 -47 7 -47 17 0 33 -5 37 -11 10 -16 -17 -30
-44 -24 -15 4 -21 2 -17 -5 9 -15 51 -12 69 5 27 27 7 49 -41 48 -21 -1 -15
14 15 36 18 14 22 20 11 21 -8 0 -25 -10 -37 -23z"/>
<path d="M2043 1883 c-23 -4 -33 -23 -13 -23 6 0 10 -18 10 -41 0 -24 4 -38
10 -34 6 3 10 23 10 44 0 29 5 40 23 49 20 10 20 11 2 10 -11 0 -30 -3 -42 -5z"/>
<path d="M2185 1880 c-15 -24 -22 -67 -14 -88 7 -18 15 -23 36 -20 14 2 28 9
31 16 3 11 0 12 -15 3 -36 -19 -56 25 -32 70 5 11 14 17 20 14 5 -4 9 -1 9 4
0 14 -27 14 -35 1z"/>
<path d="M2340 1875 c-6 -8 -12 -30 -13 -50 -1 -31 -4 -35 -29 -35 -27 0 -28
2 -28 45 0 25 -4 45 -10 45 -12 0 -13 -70 -1 -89 15 -24 122 -16 144 10 22 27
22 44 -3 69 -24 24 -43 25 -60 5z m58 -37 c3 -28 -28 -55 -48 -43 -11 7 -13
58 -3 69 17 16 48 0 51 -26z"/>
<path d="M2434 1876 c-10 -27 1 -51 23 -51 32 -1 41 -15 19 -31 -17 -12 -22
-12 -38 3 -10 9 -18 11 -18 6 0 -6 7 -17 16 -24 14 -11 21 -11 45 3 23 14 29
14 29 3 0 -10 9 -12 38 -8 50 8 53 13 9 13 -40 0 -51 21 -19 39 16 10 16 10 0
11 -29 0 -21 29 10 36 44 10 49 12 20 13 -44 2 -58 -9 -59 -43 0 -17 -3 -25
-6 -18 -2 6 -18 12 -35 12 -23 0 -29 4 -26 18 3 11 12 16 26 15 14 -2 21 1 17
7 -9 15 -45 12 -51 -4z"/>
<path d="M2524 1699 c-4 -7 0 -9 14 -5 29 10 36 -10 11 -28 -15 -10 -19 -20
-14 -33 7 -17 8 -17 15 2 4 12 15 27 24 34 12 10 14 17 5 27 -14 17 -45 18
-55 3z"/>
<path d="M2487 1655 l-9 -50 -26 44 c-22 38 -27 41 -33 25 -11 -28 -10 -94 1
-94 6 0 10 17 10 38 l0 37 20 -32 c33 -55 54 -39 48 38 l-3 44 -8 -50z"/>
<path d="M1732 1678 c-7 -7 -12 -29 -12 -49 0 -66 47 -77 77 -18 12 23 13 23
14 -11 1 -20 3 -26 6 -15 10 46 13 48 32 24 28 -35 51 -19 51 36 0 60 -18 58
-22 -2 l-3 -48 -24 44 c-20 39 -25 43 -35 29 -10 -13 -14 -14 -22 -3 -14 19
-48 27 -62 13z m55 -24 c8 -21 -13 -64 -32 -64 -16 0 -30 42 -21 65 7 20 45
19 53 -1z"/>
<path d="M2005 1680 c-17 -7 -17 -9 -2 -9 14 -1 17 -10 17 -48 0 -35 3 -44 10
-33 5 8 10 28 10 44 0 16 8 35 18 42 16 12 15 13 -8 13 -14 0 -34 -4 -45 -9z"/>
<path d="M2210 1670 c-6 -12 -10 -35 -8 -53 2 -27 8 -33 31 -35 24 -3 30 2 46
39 l20 43 3 -39 c3 -37 5 -39 39 -41 30 -2 38 2 48 22 6 14 11 39 10 57 -1 31
-1 31 -10 -8 -12 -48 -26 -66 -38 -46 -6 9 -11 10 -15 2 -13 -20 -26 -1 -26
36 0 27 -3 34 -15 29 -8 -3 -15 -1 -15 4 0 20 -59 11 -70 -10z m58 -17 c4 -28
-14 -63 -33 -63 -20 0 -29 43 -15 70 14 26 44 22 48 -7z"/>
<path d="M1973 1630 c0 -30 2 -43 4 -27 2 15 2 39 0 55 -2 15 -4 2 -4 -28z"/>
<path d="M2076 1664 c-10 -27 -7 -34 19 -34 28 0 32 -12 10 -30 -12 -10 -18
-10 -32 1 -14 12 -16 12 -11 -1 6 -20 35 -25 53 -10 24 20 19 58 -7 63 -23 4
-23 4 2 15 l25 11 -26 0 c-16 1 -29 -6 -33 -15z"/>
<path d="M2530 1590 c0 -5 5 -10 10 -10 6 0 10 5 10 10 0 6 -4 10 -10 10 -5 0
-10 -4 -10 -10z"/>
<path d="M2261 1404 c-1 -129 20 -267 51 -327 19 -38 106 -157 114 -157 13 0
-2 25 -42 74 -79 97 -100 170 -113 396 l-8 125 -2 -111z"/>
<path d="M1952 1101 c-29 -10 -54 -20 -56 -22 -29 -37 -36 -60 -36 -114 1
-106 46 -174 123 -182 l43 -5 -9 -72 c-7 -51 -20 -92 -49 -149 -22 -43 -38
-80 -35 -83 8 -8 77 124 92 176 l13 45 1 -87 c1 -74 -29 -366 -44 -435 -3 -13
-1 -23 4 -23 5 0 14 46 21 103 6 56 15 122 20 147 l8 45 1 -57 c0 -31 4 -59 9
-61 19 -12 172 -54 172 -48 0 4 -35 18 -77 32 l-78 24 -6 70 c-4 39 -10 129
-13 200 l-6 130 26 -65 c14 -36 32 -96 41 -135 8 -38 16 -72 19 -74 24 -24
-10 127 -53 233 l-36 88 29 24 c16 13 32 23 36 24 13 0 48 88 48 121 0 19 -11
58 -25 87 -19 40 -33 56 -59 67 -45 19 -59 18 -124 -4z m136 -21 c40 -38 55
-79 50 -142 -4 -50 -9 -63 -38 -93 -96 -99 -213 -44 -228 107 -6 67 12 106 62
129 56 25 126 25 154 -1z"/>
<path d="M2450 975 c0 -14 4 -25 9 -25 4 0 6 11 3 25 -2 14 -6 25 -8 25 -2 0
-4 -11 -4 -25z"/>
<path d="M2497 994 c-4 -4 -7 -14 -7 -23 0 -11 3 -12 11 -4 6 6 10 16 7 23 -2
6 -7 8 -11 4z"/>
<path d="M2643 984 c-3 -8 -1 -20 6 -27 6 -6 11 -19 11 -29 0 -16 -10 -18 -95
-18 l-95 0 0 -94 c0 -66 4 -96 13 -99 6 -3 33 -2 60 1 31 3 47 1 47 -7 0 -7
-23 -11 -62 -11 l-63 -1 -17 -38 c-19 -41 -25 -146 -8 -156 6 -3 10 -40 10
-81 0 -59 -3 -74 -15 -74 -21 0 -22 -115 -1 -123 8 -3 12 -15 9 -31 -6 -31 15
-43 47 -26 16 9 20 18 16 35 -6 24 7 41 24 30 6 -3 5 -15 -2 -31 -9 -20 -9
-28 5 -41 13 -14 21 -14 42 -5 26 12 33 40 14 59 -8 8 -8 13 0 17 18 11 31 -3
31 -35 0 -24 4 -29 23 -29 29 0 47 18 47 47 0 13 5 23 11 23 7 0 9 -10 7 -25
-7 -34 13 -59 39 -51 26 8 36 32 23 56 -6 11 -6 20 -1 22 6 2 13 27 17 55 6
46 4 54 -12 60 -11 3 -22 11 -27 17 -10 15 3 119 16 128 6 3 12 35 14 71 2 51
0 66 -12 71 -8 3 -15 17 -15 31 0 22 -4 25 -35 25 -19 0 -35 4 -35 8 0 4 12 8
28 7 l27 0 3 98 3 97 -36 0 c-30 0 -35 3 -35 23 0 13 5 28 11 34 6 6 8 16 5
22 -10 16 -36 13 -43 -5z m29 -9 c0 -5 -5 -11 -11 -13 -6 -2 -11 4 -11 13 0 9
5 15 11 13 6 -2 11 -8 11 -13z m58 -107 c0 -18 -3 -56 -6 -84 l-7 -52 -113 1
-114 0 0 29 0 28 70 0 70 0 0 41 0 41 -70 -7 c-60 -6 -70 -5 -70 9 0 12 15 16
78 19 42 1 96 4 120 5 41 2 42 1 42 -30z m-233 -50 c-3 -7 -5 -2 -5 12 0 14 2
19 5 13 2 -7 2 -19 0 -25z m53 12 c0 -11 -4 -20 -10 -20 -5 0 -10 6 -10 13 0
8 -4 7 -10 -3 -8 -12 -10 -11 -10 8 0 15 6 22 20 22 13 0 20 -7 20 -20z m40 0
c0 -11 -7 -20 -15 -20 -8 0 -15 9 -15 20 0 11 7 20 15 20 8 0 15 -9 15 -20z
m30 0 c0 -11 -4 -20 -10 -20 -5 0 -10 9 -10 20 0 11 5 20 10 20 6 0 10 -9 10
-20z m40 -120 c0 -5 -14 -10 -31 -10 -17 0 -28 4 -24 10 3 6 17 10 31 10 13 0
24 -4 24 -10z m76 -90 c-3 -36 -6 -106 -6 -156 l0 -92 -136 0 -137 -1 7 52 c3
29 6 99 6 157 l0 105 136 0 136 0 -6 -65z m-289 -72 c-2 -18 -4 -4 -4 32 0 36
2 50 4 33 2 -18 2 -48 0 -65z m316 35 c-7 -71 -11 -75 -12 -10 -1 31 3 57 8
57 5 0 6 -21 4 -47z m-110 -230 c-29 -2 -77 -2 -105 0 -29 2 -6 3 52 3 58 0
81 -1 53 -3z m117 -52 l0 -38 -152 -5 c-84 -3 -160 -7 -168 -9 -11 -3 -16 7
-18 44 l-3 47 170 0 171 0 0 -39z m-90 -91 c0 -11 -24 -30 -37 -30 -9 0 -13
11 -11 29 2 26 4 28 25 18 13 -6 23 -13 23 -17z m-191 -3 c8 -10 7 -17 -1 -25
-18 -18 -38 -14 -38 6 0 32 20 42 39 19z m101 -17 c0 -5 -8 -14 -18 -19 -26
-14 -45 5 -31 31 8 14 14 16 29 8 11 -6 20 -15 20 -20z m170 11 c0 -21 -26
-36 -36 -20 -9 15 3 39 21 39 8 0 15 -9 15 -19z"/>
<path d="M2643 631 c31 -3 57 -9 57 -13 0 -5 0 -44 0 -87 l0 -80 -32 -4 c-32
-4 -32 -4 5 -5 l37 -2 2 80 c1 44 2 88 2 98 1 14 -9 17 -64 18 l-65 1 58 -6z"/>
<path d="M2583 515 c0 -38 2 -53 4 -32 2 20 2 52 0 70 -2 17 -4 1 -4 -38z"/>
<path d="M2608 453 c7 -3 16 -2 19 1 4 3 -2 6 -13 5 -11 0 -14 -3 -6 -6z"/>
<path d="M2460 190 c0 -5 5 -10 10 -10 6 0 10 5 10 10 0 6 -4 10 -10 10 -5 0
-10 -4 -10 -10z"/>
<path d="M2730 200 c0 -5 5 -10 10 -10 6 0 10 5 10 10 0 6 -4 10 -10 10 -5 0
-10 -4 -10 -10z"/>
<path d="M2390 906 c0 -2 7 -6 15 -10 8 -3 15 -1 15 4 0 6 -7 10 -15 10 -8 0
-15 -2 -15 -4z"/>
<path d="M2410 860 c-9 -6 -10 -10 -3 -10 6 0 15 5 18 10 8 12 4 12 -15 0z"/>
<path d="M2821 547 c3 -29 2 -78 -3 -111 -11 -75 -3 -84 12 -13 12 54 7 162
-9 171 -4 3 -4 -18 0 -47z"/>
<path d="M2875 479 c-1 -32 3 -53 7 -46 10 15 10 78 0 94 -4 6 -7 -15 -7 -48z"/>
<path d="M2921 474 c0 -11 3 -14 6 -6 3 7 2 16 -1 19 -3 4 -6 -2 -5 -13z"/>
<path d="M3140 1300 l0 -1300 1160 0 1160 0 0 1300 0 1300 -1160 0 -1160 0 0
-1300z m2300 0 l0 -1280 -1140 0 -1140 0 0 1280 0 1280 1140 0 1140 0 0 -1280z"/>
<path d="M3428 2480 c-4 -14 -9 -36 -10 -50 -4 -25 -4 -25 -21 8 -25 46 -37
40 -35 -20 1 -46 2 -48 5 -14 l4 39 29 -34 c15 -19 31 -31 35 -28 3 4 5 33 3
65 -2 44 -5 52 -10 34z"/>
<path d="M3703 2488 c-39 -19 -41 -65 -2 -55 25 7 24 -15 -2 -39 -20 -18 -21
-18 -35 1 -11 15 -14 16 -14 3 0 -8 6 -21 14 -27 17 -14 49 -1 64 26 8 14 10
14 17 -6 11 -37 56 -24 78 21 37 75 -14 108 -60 39 -13 -20 -23 -27 -23 -18 0
10 -11 17 -27 19 l-28 4 33 15 c18 9 29 18 25 22 -8 9 -13 8 -40 -5z m117 -33
c0 -23 -21 -63 -37 -69 -22 -9 -26 19 -8 53 16 32 45 42 45 16z"/>
<path d="M3920 2480 c-30 -24 -40 -25 -40 -5 0 34 -19 11 -39 -46 -13 -40 -16
-59 -8 -56 6 2 16 18 21 35 7 24 15 32 31 32 13 0 28 7 35 15 23 27 29 16 15
-26 -17 -47 -18 -59 -7 -59 4 0 13 21 20 46 7 26 15 44 18 41 3 -3 0 -24 -7
-46 -7 -23 -10 -43 -8 -46 9 -8 79 7 79 17 0 5 -13 7 -30 3 -18 -4 -30 -2 -30
3 0 22 13 42 26 42 8 0 14 5 14 11 0 5 -4 7 -10 4 -5 -3 -10 1 -10 9 0 19 49
33 59 17 4 -6 15 -9 24 -5 21 8 21 -3 2 -49 -18 -42 -18 -47 -6 -47 5 0 17 23
26 51 11 33 24 53 36 56 11 3 19 9 19 14 0 11 -5 11 -52 0 -25 -6 -38 -5 -38
1 0 14 -73 0 -82 -15 -5 -8 -8 -6 -8 6 0 22 -19 21 -50 -3z"/>
<path d="M4698 2453 l-3 -48 -24 40 c-23 39 -24 40 -32 16 -5 -13 -7 -33 -4
-45 3 -12 -5 -1 -17 24 -29 56 -52 63 -67 19 -14 -40 -14 -79 -1 -79 6 0 10 9
10 19 0 17 18 31 41 31 5 0 9 -9 9 -20 0 -10 9 -24 20 -30 19 -10 20 -8 20 32
l1 43 19 -37 c32 -59 40 -56 40 16 0 77 -8 88 -12 19z m-100 -1 c2 -7 -6 -12
-17 -12 -21 0 -27 11 -14 24 9 9 26 2 31 -12z"/>
<path d="M3280 2471 c-26 -50 1 -118 38 -94 10 5 21 22 26 36 20 55 -37 107
-64 58z m45 -41 c0 -40 -29 -55 -40 -21 -9 30 4 63 23 59 12 -2 17 -14 17 -38z"/>
<path d="M3562 2463 l-19 -27 -12 22 c-6 12 -17 22 -23 22 -6 0 -3 -10 6 -25
9 -13 20 -42 25 -62 9 -37 9 -38 10 -7 1 17 12 48 26 68 28 41 17 50 -13 9z"/>
<path d="M4178 2484 c-13 -23 -39 -116 -34 -121 6 -6 36 58 36 77 0 7 6 8 18
1 14 -7 25 -6 40 5 l21 14 -16 -45 c-8 -26 -13 -49 -10 -52 7 -6 36 60 44 100
7 33 -15 37 -42 6 l-19 -20 -17 22 c-9 12 -18 18 -21 13z"/>
<path d="M4295 2477 c-2 -7 -8 -27 -14 -46 -17 -54 -15 -61 24 -61 19 0 35 5
35 10 0 6 -11 10 -25 10 -31 0 -32 14 -3 34 12 9 17 16 10 16 -6 0 -12 7 -12
15 0 8 6 15 13 15 6 0 22 3 34 6 19 5 22 2 20 -22 -2 -25 2 -29 26 -32 31 -4
34 -14 11 -33 -13 -10 -20 -10 -36 0 -17 11 -19 10 -16 -6 8 -44 88 -11 88 37
0 16 -7 20 -30 20 -33 0 -39 14 -12 29 11 6 24 6 35 0 13 -8 17 -6 17 5 0 12
-16 15 -80 15 -55 0 -82 -4 -85 -12z"/>
<path d="M4726 2433 c4 -32 8 -60 11 -62 6 -8 56 34 63 54 4 11 4 30 -1 43 -7
17 -16 22 -44 22 l-35 0 6 -57z m48 41 c20 -8 20 -33 0 -62 -23 -34 -34 -27
-34 23 0 45 5 50 34 39z"/>
<path d="M3458 2467 c-11 -27 -10 -81 3 -94 12 -12 59 -5 59 9 0 6 -11 7 -24
4 -24 -6 -25 -4 -28 46 -2 36 -5 47 -10 35z"/>
<path d="M4126 2446 c-3 -13 -9 -31 -12 -40 -3 -9 -2 -16 4 -16 9 0 32 51 32
71 0 19 -18 7 -24 -15z"/>
<path d="M4450 2380 c0 -5 5 -10 10 -10 6 0 10 5 10 10 0 6 -4 10 -10 10 -5 0
-10 -4 -10 -10z"/>
<path d="M4133 2288 c-33 -42 -16 -118 27 -118 30 0 33 18 3 22 -30 3 -39 23
-28 65 4 17 11 23 21 19 10 -4 14 -1 12 6 -6 17 -24 20 -35 6z"/>
<path d="M4225 2293 c-27 -7 -43 -23 -23 -23 13 0 18 -12 21 -52 l3 -53 2 58
c2 50 5 57 22 57 11 0 20 5 20 10 0 10 -11 11 -45 3z"/>
<path d="M4384 2271 c-18 -28 -22 -30 -34 -17 -7 9 -17 16 -22 16 -6 0 -5 -7
2 -15 7 -8 18 -32 26 -52 l13 -38 1 31 c0 17 9 43 21 58 11 14 19 31 17 38 -2
6 -13 -3 -24 -21z"/>
<path d="M3370 2275 c0 -8 2 -15 4 -15 2 0 6 7 10 15 3 8 1 15 -4 15 -6 0 -10
-7 -10 -15z"/>
<path d="M3715 2283 c-27 -7 -44 -23 -23 -23 13 0 15 -9 10 -45 -3 -30 -1 -45
7 -45 7 0 11 19 11 50 0 43 3 50 20 50 11 0 20 5 20 10 0 10 -11 11 -45 3z"/>
<path d="M3837 2283 c-4 -3 -7 -33 -7 -65 l0 -58 41 0 c26 0 38 4 33 11 -3 6
-17 9 -30 6 -21 -4 -24 0 -24 24 0 21 5 29 18 30 13 0 14 2 2 6 -32 13 -29 28
8 40 l37 11 -36 1 c-20 1 -39 -2 -42 -6z"/>
<path d="M3977 2264 c-14 -27 -14 -27 -26 -6 -6 12 -16 22 -22 22 -5 0 -2 -12
8 -26 13 -21 14 -30 5 -45 -19 -30 -13 -46 7 -20 l19 24 13 -21 c18 -29 47
-28 51 1 2 16 11 23 31 25 23 3 27 0 27 -22 0 -14 5 -26 11 -26 15 0 2 59 -20
90 -32 45 -46 33 -66 -54 l-6 -29 -16 23 c-13 19 -14 29 -5 53 15 40 8 47 -11
11z m92 -8 c9 -11 8 -15 -5 -20 -23 -9 -24 -8 -24 14 0 23 13 26 29 6z"/>
<path d="M4486 2273 c-14 -44 -23 -113 -14 -113 4 0 11 14 15 30 4 21 11 30
24 30 11 0 19 5 19 10 0 6 -7 10 -15 10 -8 0 -15 7 -15 15 0 10 10 15 30 15
17 0 30 5 30 10 0 6 -15 10 -34 10 -24 0 -36 -5 -40 -17z"/>
<path d="M4565 2256 c-23 -56 -17 -80 22 -84 35 -3 50 14 64 75 11 50 -7 49
-20 -1 -12 -51 -36 -75 -53 -58 -9 9 -9 23 -1 54 15 55 8 62 -12 14z"/>
<path d="M4735 2248 l-17 -43 -16 33 c-9 17 -19 32 -23 32 -10 0 -29 -59 -28
-89 0 -23 1 -24 9 -6 5 11 11 29 15 40 6 18 8 16 20 -12 19 -44 30 -41 48 10
8 23 18 50 22 60 4 9 3 17 -3 17 -5 0 -18 -19 -27 -42z"/>
<path d="M3285 2270 c-3 -5 1 -10 9 -10 12 0 16 -11 16 -45 0 -25 3 -45 8 -45
4 0 6 20 4 45 -4 39 -1 46 19 54 22 9 20 10 -13 10 -20 1 -40 -3 -43 -9z"/>
<path d="M3399 2262 c-29 -25 -20 -57 15 -48 30 7 38 -1 25 -26 -8 -16 -17
-19 -40 -14 -33 6 -40 -9 -9 -19 30 -9 72 21 68 48 -2 16 -11 23 -31 25 -33 4
-31 25 1 30 12 2 20 8 17 13 -9 13 -20 11 -46 -9z"/>
<path d="M3575 2268 c-2 -7 -5 -24 -7 -38 -3 -24 -4 -24 -22 9 -14 26 -20 31
-27 20 -12 -19 -11 -70 1 -89 7 -11 10 -5 10 25 l0 40 21 -32 c12 -18 25 -33
30 -33 5 0 9 25 9 55 0 53 -6 69 -15 43z"/>
<path d="M3612 2255 c-16 -35 -15 -61 4 -79 37 -37 81 32 50 79 -21 32 -40 32
-54 0z m43 -36 c0 -23 -5 -35 -16 -37 -20 -4 -29 26 -18 57 13 33 34 20 34
-20z"/>
<path d="M4276 2248 c-4 -20 -6 -44 -4 -53 4 -25 32 -40 54 -30 17 8 16 9 -8
13 -25 3 -27 7 -30 55 l-3 52 -9 -37z"/>
<path d="M3263 2215 c0 -33 2 -45 4 -27 2 18 2 45 0 60 -2 15 -4 0 -4 -33z"/>
<path d="M4750 2180 c0 -5 5 -10 10 -10 6 0 10 5 10 10 0 6 -4 10 -10 10 -5 0
-10 -4 -10 -10z"/>
<path d="M3323 2084 c-23 -84 -1 -462 28 -480 12 -7 11 3 -1 46 -19 68 -29
235 -20 346 9 113 7 137 -7 88z"/>
<path d="M4066 2034 c-8 -21 -8 -24 3 -24 5 0 11 9 14 20 6 24 -8 27 -17 4z"/>
<path d="M5045 2000 c-21 -54 -27 -54 -45 3 -19 60 -24 35 -5 -28 9 -31 21
-55 26 -53 6 2 21 30 35 63 27 69 26 65 16 65 -4 0 -16 -22 -27 -50z"/>
<path d="M3645 2033 c-11 -3 -24 -9 -29 -13 -5 -5 -17 -3 -28 3 -27 16 -50
-16 -46 -63 5 -63 68 -48 68 16 0 24 5 34 15 34 11 0 15 -13 16 -47 1 -32 3
-38 6 -18 7 60 14 76 36 85 20 8 20 9 2 8 -11 0 -29 -2 -40 -5z m-50 -43 c6
-20 -10 -60 -25 -60 -13 0 -22 37 -15 60 8 26 32 26 40 0z"/>
<path d="M4005 2033 c-28 -7 -43 -23 -22 -23 13 0 17 -9 17 -45 0 -25 -4 -45
-10 -45 -5 0 -10 -4 -10 -8 0 -4 16 -6 35 -4 34 4 50 22 20 22 -11 0 -15 12
-15 45 0 33 4 45 15 45 8 0 15 5 15 10 0 10 -11 11 -45 3z"/>
<path d="M4310 2030 c-16 -5 -19 -8 -7 -9 14 -1 17 -11 17 -56 0 -73 18 -71
22 3 3 48 6 57 23 60 18 2 20 -3 18 -55 0 -32 1 -46 4 -30 6 34 27 35 58 1 14
-15 25 -21 25 -14 0 7 -8 22 -17 32 -15 17 -15 19 2 32 10 7 16 20 13 28 -7
16 -113 21 -158 8z m136 -25 c-21 -16 -56 -20 -56 -7 0 16 13 22 44 22 29 -1
30 -1 12 -15z"/>
<path d="M4547 2008 l-26 -33 -20 25 c-23 28 -29 14 -6 -16 8 -10 15 -31 15
-46 0 -16 5 -28 10 -28 6 0 10 10 10 22 0 12 12 39 26 60 34 48 26 60 -9 16z"/>
<path d="M4665 2033 c-11 -3 -24 -10 -30 -15 -7 -8 -5 -9 8 -5 15 6 17 0 17
-44 0 -31 4 -48 10 -44 6 3 10 26 10 49 0 39 3 44 26 49 20 4 24 1 18 -12 -4
-9 -8 -32 -8 -51 -1 -29 3 -36 21 -38 12 -2 31 6 42 17 24 24 28 76 7 84 -23
9 -100 16 -121 10z m119 -35 c8 -13 5 -22 -14 -43 -13 -14 -27 -25 -32 -25
-16 0 -20 30 -8 61 14 32 36 35 54 7z"/>
<path d="M4906 2008 c-21 -51 -30 -102 -17 -94 6 4 11 15 11 26 0 11 10 20 25
24 32 8 45 1 45 -25 0 -10 5 -19 11 -19 6 0 8 8 5 18 -3 9 -8 31 -12 47 -14
63 -47 74 -68 23z m45 -21 c-5 -5 -16 -7 -24 -5 -11 2 -12 9 -5 28 9 24 10 24
24 6 8 -12 10 -24 5 -29z"/>
<path d="M5171 1988 c-1 -33 3 -58 9 -58 12 0 12 54 0 90 -6 19 -8 11 -9 -32z"/>
<path d="M5207 2033 c-4 -3 -7 -30 -7 -60 0 -47 2 -53 20 -53 48 0 89 77 58
108 -13 13 -60 16 -71 5z m47 -9 c32 -12 14 -84 -21 -84 -18 0 -29 70 -12 81
17 11 14 10 33 3z"/>
<path d="M3507 2023 c-4 -3 -7 -22 -7 -42 l0 -36 -26 38 c-14 21 -29 35 -35
32 -12 -8 -12 -92 0 -100 6 -3 11 12 13 32 l3 38 23 -37 c13 -21 28 -38 33
-38 5 0 9 27 9 60 0 61 -1 65 -13 53z"/>
<path d="M3706 2022 c-3 -5 -8 -32 -12 -60 -6 -50 -6 -52 17 -51 13 0 33 4 44
9 17 7 15 9 -12 9 -26 1 -33 5 -33 20 0 11 8 22 18 24 16 4 16 5 0 6 -30 2
-20 30 15 40 l32 9 -32 1 c-17 1 -34 -3 -37 -7z"/>
<path d="M3789 2028 c0 -2 -1 -29 -2 -61 -2 -64 3 -68 54 -34 58 39 48 97 -17
97 -19 0 -34 -1 -35 -2z m70 -22 c15 -18 1 -50 -29 -66 -27 -14 -30 -13 -30
13 1 61 31 88 59 53z"/>
<path d="M4092 1978 l3 -53 55 -1 c30 -1 64 3 75 7 16 6 14 8 -12 8 -32 1 -33
2 -34 49 -1 44 -1 45 -10 17 -5 -16 -7 -38 -5 -48 3 -12 -3 -19 -19 -23 -38
-9 -48 4 -41 52 3 28 2 44 -5 44 -6 0 -9 -21 -7 -52z"/>
<path d="M5080 2004 c-14 -36 -12 -60 5 -74 22 -18 63 2 71 34 14 58 -55 95
-76 40z m58 -33 c-2 -18 -10 -27 -25 -29 -19 -3 -23 1 -23 25 0 16 5 34 12 41
17 17 40 -5 36 -37z"/>
<path d="M3870 1919 c0 -5 5 -7 10 -4 6 3 10 8 10 11 0 2 -4 4 -10 4 -5 0 -10
-5 -10 -11z"/>
<path d="M4411 1814 l-22 -36 -20 27 c-12 14 -24 24 -26 21 -3 -3 4 -17 16
-32 11 -15 21 -40 21 -56 0 -17 4 -27 10 -23 6 3 10 15 10 26 0 11 9 38 21 60
26 52 19 62 -10 13z"/>
<path d="M3560 1832 c-14 -2 -30 -8 -37 -13 -7 -7 -14 -6 -18 1 -7 11 -62 14
-68 3 -2 -5 -1 -33 3 -63 4 -30 8 -43 9 -27 1 20 6 27 20 27 11 0 27 7 35 16
15 14 16 12 16 -25 0 -40 1 -41 35 -41 19 0 35 5 35 11 0 7 -10 9 -25 7 -21
-4 -25 -1 -25 18 0 12 5 26 11 30 8 5 8 9 -1 14 -18 11 -3 30 25 30 27 0 34
-16 36 -73 2 -42 2 -42 8 -8 l6 34 33 -27 c33 -29 44 -25 16 5 -15 17 -15 19
0 35 10 9 16 24 14 33 -4 19 -53 27 -72 12 -7 -6 -17 -7 -22 -3 -5 5 -20 6
-34 4z m113 -9 c9 -9 -22 -43 -40 -43 -17 0 -17 37 0 43 18 8 33 8 40 0z
m-176 -18 c7 -19 5 -20 -24 -29 -20 -6 -23 -4 -23 18 0 19 5 26 20 26 11 0 23
-7 27 -15z"/>
<path d="M3858 1833 c-13 -3 -18 -15 -19 -41 0 -20 -3 -30 -6 -22 -16 43 -70
69 -113 55 -22 -7 -26 -36 -13 -96 l7 -34 6 34 c6 44 26 51 33 13 8 -40 33
-47 62 -18 20 21 25 22 28 8 3 -12 5 -10 6 6 1 27 12 28 36 2 21 -23 55 -27
55 -5 0 14 29 35 49 35 6 0 11 -11 11 -25 0 -14 5 -25 10 -25 15 0 12 47 -5
80 -22 43 -51 40 -64 -7 -6 -21 -11 -44 -11 -50 0 -18 -7 -16 -31 8 -19 19
-19 22 -4 33 35 25 8 61 -37 49z m-89 -20 c-2 -29 -15 -40 -36 -32 -13 5 -23
13 -23 18 0 8 10 12 53 20 4 0 7 -2 6 -6z m129 -5 c-5 -15 -48 -24 -48 -10 0
14 12 22 33 22 10 0 17 -5 15 -12z m92 -19 c0 -5 -9 -9 -20 -9 -22 0 -23 1
-14 24 5 13 9 14 20 5 8 -6 14 -15 14 -20z m-178 -14 c8 -19 8 -28 -2 -40 -22
-26 -40 -18 -40 18 0 52 23 64 42 22z"/>
<path d="M4033 1830 c-13 -5 -23 -12 -23 -16 0 -3 7 -4 15 0 12 4 15 -4 15
-45 0 -31 4 -48 10 -44 6 3 10 26 10 51 0 32 4 44 15 44 8 0 15 5 15 10 0 12
-27 12 -57 0z"/>
<path d="M4227 1829 c-10 -6 -22 -20 -27 -32 -8 -21 -9 -20 -9 6 -2 50 -21 28
-22 -25 l0 -53 -22 43 c-11 23 -25 42 -29 42 -4 0 -8 -21 -7 -47 0 -38 2 -45
11 -32 10 15 14 13 34 -10 l23 -26 1 33 c0 37 11 42 25 10 7 -17 18 -23 40
-23 27 0 30 3 30 30 0 22 -5 30 -20 33 -18 2 -18 2 -2 -8 22 -14 22 -36 0 -44
-18 -7 -43 17 -43 42 0 29 21 52 48 52 21 0 24 2 12 10 -19 12 -21 12 -43 -1z"/>
<path d="M4619 1808 c-2 -31 -2 -31 -6 -5 -6 36 -20 35 -21 -2 -1 -37 -20 -73
-35 -68 -7 2 -14 26 -18 53 -4 37 -7 45 -14 30 -4 -10 -4 -34 1 -55 7 -29 14
-36 34 -36 15 0 29 8 35 22 l11 22 11 -27 c10 -24 11 -21 12 31 1 54 3 58 23
55 29 -4 34 -25 9 -33 -29 -9 -25 -26 10 -54 37 -29 48 -22 16 10 l-25 23 21
17 c18 14 19 19 8 33 -7 9 -26 16 -42 16 -26 0 -29 -4 -30 -32z"/>
<path d="M4772 1828 c-7 -7 -12 -20 -12 -30 0 -14 8 -18 36 -18 31 0 35 -3 32
-22 -2 -19 -9 -23 -36 -21 -27 1 -31 -1 -21 -13 26 -32 69 -9 69 37 0 24 -5
28 -32 31 -43 4 -43 22 0 26 18 2 30 8 27 13 -9 13 -49 11 -63 -3z"/>
<path d="M4958 1829 c-13 -7 -18 -23 -18 -59 0 -28 5 -50 10 -50 6 0 10 7 10
15 0 20 19 19 42 -2 10 -9 18 -11 18 -6 0 6 -7 16 -15 23 -14 11 -13 14 1 24
22 17 15 60 -11 63 -11 2 -28 -2 -37 -8z m52 -16 c0 -12 -33 -43 -47 -43 -13
0 -18 31 -6 43 8 9 53 9 53 0z"/>
<path d="M5052 1831 c-14 -8 -20 -107 -8 -119 3 -3 6 9 6 26 0 24 5 32 23 35
l22 4 -22 2 c-16 1 -23 7 -23 21 0 16 7 20 36 20 31 0 35 -3 28 -17 -4 -10 -8
-36 -10 -58 -1 -22 0 -30 2 -17 3 13 17 27 30 33 34 12 34 12 34 -16 0 -31 20
-33 21 -2 l0 22 9 -22 c7 -17 18 -23 40 -23 16 0 30 4 30 8 0 4 -12 8 -27 7
-50 0 -41 64 12 85 20 9 20 9 -1 9 -22 1 -54 -27 -54 -47 0 -23 -16 -12 -27
19 -10 25 -17 30 -33 26 -11 -3 -23 -1 -26 4 -7 11 -45 11 -62 0z m108 -37 c0
-8 -9 -14 -20 -14 -18 0 -19 3 -10 20 12 22 30 18 30 -6z"/>
<path d="M4440 1810 c-6 -12 -10 -38 -8 -58 2 -30 7 -38 26 -40 51 -8 72 59
30 98 -27 25 -35 25 -48 0z m45 -24 c13 -19 14 -29 5 -45 -20 -37 -50 -20 -50
28 0 14 17 41 27 41 1 0 10 -11 18 -24z"/>
<path d="M4914 1796 c0 -36 -20 -70 -35 -60 -5 3 -9 17 -9 32 0 15 -5 34 -10
42 -7 11 -10 7 -10 -18 0 -66 34 -93 64 -50 17 23 22 88 8 88 -4 0 -8 -15 -8
-34z"/>
<path d="M5290 1828 c-1 -2 -2 -29 -5 -60 -4 -61 -2 -63 45 -48 l25 8 -27 1
c-23 1 -28 6 -28 25 0 18 7 26 23 29 l22 4 -22 2 c-34 2 -28 19 10 30 l32 9
-37 1 c-21 1 -38 0 -38 -1z"/>
<path d="M4075 1771 c-4 -23 -2 -48 4 -58 8 -14 10 -5 11 40 0 67 -5 73 -15
18z"/>
<path d="M5360 1730 c0 -5 5 -10 10 -10 6 0 10 5 10 10 0 6 -4 10 -10 10 -5 0
-10 -4 -10 -10z"/>
<path d="M4887 1613 c4 -32 8 -132 8 -223 0 -153 -2 -170 -27 -238 -14 -40
-45 -102 -69 -138 -23 -35 -40 -66 -38 -69 2 -2 26 28 51 66 55 81 95 196 104
299 8 80 -14 360 -28 360 -6 0 -6 -22 -1 -57z"/>
<path d="M3559 1530 l-4 -55 -24 43 c-30 51 -44 43 -32 -18 7 -37 9 -39 10
-15 l1 30 24 -30 c32 -39 43 -25 36 45 l-6 55 -5 -55z"/>
<path d="M3621 1554 c-15 -19 -21 -22 -21 -10 0 9 -5 16 -11 16 -6 0 -8 -7 -5
-16 3 -9 7 -32 7 -52 1 -24 3 -29 6 -14 5 26 11 27 35 5 10 -9 21 -14 24 -10
3 3 -4 14 -15 24 -25 21 -26 31 -4 55 9 10 14 21 11 24 -3 3 -15 -7 -27 -22z"/>
<path d="M3751 1558 c1 -13 5 -34 9 -48 7 -20 8 -16 9 23 1 26 -3 47 -9 47 -5
0 -10 -10 -9 -22z"/>
<path d="M3905 1573 c-28 -7 -43 -23 -22 -23 13 0 17 -9 17 -45 0 -25 5 -45
10 -45 6 0 10 23 10 51 0 50 1 51 25 45 20 -5 25 -3 25 11 0 15 -2 16 -10 3
-6 -10 -10 -11 -10 -2 0 12 -10 13 -45 5z"/>
<path d="M3255 1560 c-16 -7 -17 -9 -3 -9 13 -1 18 -12 21 -48 l3 -48 2 46 c2
37 6 48 25 57 l22 11 -25 0 c-14 0 -34 -4 -45 -9z"/>
<path d="M3371 1548 c-1 -21 -6 -28 -21 -28 -11 0 -20 7 -20 15 0 8 -4 15 -10
15 -5 0 -9 -21 -9 -47 1 -27 4 -38 6 -25 2 12 8 22 13 22 5 0 15 2 23 5 9 4
17 -5 24 -27 l11 -33 0 45 c1 52 -16 106 -17 58z"/>
<path d="M3670 1555 c-19 -23 -4 -45 30 -45 31 0 36 -6 21 -29 -5 -8 -18 -12
-31 -8 -14 3 -20 1 -17 -6 6 -18 42 -20 56 -3 7 8 11 25 9 38 -2 18 -9 23 -31
21 -36 -2 -34 28 3 38 l25 7 -26 1 c-15 1 -32 -6 -39 -14z"/>
<path d="M3851 1518 c0 -33 3 -58 9 -58 12 0 12 20 1 75 -9 40 -9 39 -10 -17z"/>
<path d="M3998 1559 c-10 -5 -18 -19 -18 -29 0 -16 7 -20 30 -20 33 0 40 -19
14 -41 -12 -10 -20 -10 -35 -1 -26 16 -34 15 -19 -3 20 -24 65 -19 77 8 14 31
-1 57 -33 57 -14 0 -22 4 -19 10 3 6 15 10 26 10 10 0 19 5 19 10 0 13 -20 12
-42 -1z"/>
<path d="M4123 1549 c4 -13 7 -40 8 -59 1 -31 2 -32 8 -10 l7 25 27 -29 c20
-21 27 -25 27 -13 0 9 -9 22 -20 29 -24 15 -25 31 -5 48 8 7 15 17 15 23 0 6
-11 0 -25 -13 -20 -19 -25 -20 -25 -7 0 9 -5 19 -12 23 -8 5 -9 0 -5 -17z"/>
<path d="M4308 1564 c-5 -4 -8 -23 -8 -43 l-1 -36 -23 38 -24 38 -7 -47 c-4
-29 -3 -50 4 -57 8 -8 11 -2 11 22 l0 32 24 -28 c13 -15 27 -25 31 -22 3 4 5
30 3 59 -2 28 -6 48 -10 44z"/>
<path d="M4332 1510 c2 -48 6 -60 19 -60 19 0 69 54 69 75 0 19 -39 45 -68 45
-22 0 -23 -3 -20 -60z m49 40 c23 -13 24 -37 2 -62 -25 -28 -33 -22 -33 27 0
49 1 50 31 35z"/>
<path d="M3410 1534 c-6 -14 -10 -37 -9 -52 0 -27 0 -27 11 -4 13 25 58 31 58
7 0 -8 4 -15 9 -15 6 0 6 12 1 31 -18 62 -53 78 -70 33z m40 -10 c0 -8 -7 -14
-15 -14 -15 0 -21 21 -9 33 10 9 24 -2 24 -19z"/>
<path d="M4211 1523 c0 -21 4 -47 9 -58 6 -14 9 -4 9 38 1 32 -3 57 -9 57 -5
0 -10 -17 -9 -37z"/>
<path d="M3353 1370 c-20 -8 -23 -17 -23 -65 0 -30 5 -55 10 -55 6 0 10 11 10
25 0 17 7 29 23 35 l22 9 -22 0 c-16 1 -23 7 -23 21 0 16 7 20 30 20 17 0 30
5 30 10 0 12 -27 12 -57 0z"/>
<path d="M3504 1355 c-19 -29 -36 -105 -23 -105 4 0 9 10 11 23 4 32 51 36 66
5 10 -21 11 -21 11 -3 1 21 -34 105 -43 105 -3 0 -13 -11 -22 -25z m31 -35
c-7 -11 -35 -14 -35 -4 0 3 5 15 11 26 10 19 12 20 21 5 5 -10 6 -22 3 -27z"/>
<path d="M4058 1366 c-17 -9 -30 -10 -36 -4 -13 13 -77 6 -76 -9 1 -7 2 -33 3
-58 0 -26 6 -45 12 -45 7 0 9 10 7 25 -4 21 -1 25 18 25 12 0 30 7 38 16 15
14 16 13 17 -13 1 -15 1 -34 0 -41 -2 -11 6 -12 31 -7 18 4 38 12 43 17 7 7
-1 8 -22 3 -29 -6 -33 -4 -33 14 0 12 6 21 15 21 8 0 15 5 15 11 0 6 -7 8 -16
5 -11 -4 -14 -1 -12 12 2 10 14 18 31 20 15 2 27 8 27 13 0 13 -31 11 -62 -5z
m-42 -17 c9 -16 -21 -43 -40 -36 -9 4 -16 16 -16 27 0 15 7 20 24 20 14 0 28
-5 32 -11z"/>
<path d="M4150 1374 c-11 -3 -15 -19 -15 -59 l0 -55 37 0 c20 0 40 5 43 10 4
6 -8 10 -29 10 -40 0 -49 21 -18 39 16 10 16 10 0 11 -30 0 -20 27 15 38 28 9
29 10 7 10 -14 0 -32 -2 -40 -4z"/>
<path d="M4273 1325 l-20 -60 -13 45 c-7 25 -15 40 -17 33 -7 -20 17 -95 30
-90 15 5 49 94 44 116 -1 9 -12 -11 -24 -44z"/>
<path d="M3246 1348 c-41 -58 11 -130 58 -82 19 18 21 75 4 92 -19 19 -45 14
-62 -10z m52 0 c28 -28 0 -94 -33 -82 -27 11 -14 94 15 94 3 0 11 -5 18 -12z"/>
<path d="M3630 1355 c-10 -12 -10 -19 -2 -27 7 -7 13 -28 13 -47 2 -31 3 -32
6 -8 3 18 10 27 23 27 10 0 26 7 34 16 15 14 16 12 16 -20 0 -42 6 -47 53 -39
48 7 48 21 1 19 -42 -1 -59 22 -23 31 l23 6 -24 9 c-27 10 -18 23 24 34 22 5
27 4 21 -6 -6 -10 -3 -12 13 -8 20 6 22 2 23 -40 0 -42 1 -44 10 -22 6 14 8
35 6 47 -3 17 2 25 22 32 19 6 5 8 -55 7 -44 -1 -85 -6 -91 -9 -7 -4 -14 -3
-18 3 -10 15 -61 12 -75 -5z m65 -15 c0 -8 -10 -16 -22 -18 -18 -3 -23 2 -23
18 0 16 5 21 23 18 12 -2 22 -10 22 -18z"/>
<path d="M4317 1363 c-4 -3 -7 -28 -7 -55 0 -52 6 -55 60 -38 22 7 21 8 -12 9
-44 1 -53 26 -15 41 l22 9 -22 0 c-34 1 -17 29 20 34 32 4 32 4 -4 5 -20 1
-39 -1 -42 -5z"/>
<path d="M4410 1269 c0 -5 5 -7 10 -4 6 3 10 8 10 11 0 2 -4 4 -10 4 -5 0 -10
-5 -10 -11z"/>
<path d="M3540 1212 c0 -13 51 -85 89 -125 20 -21 62 -52 93 -68 61 -31 68
-33 68 -21 0 4 -20 15 -45 25 -57 24 -124 84 -165 147 -31 49 -40 58 -40 42z"/>
<path d="M3954 1111 c-76 -34 -112 -132 -80 -216 22 -57 67 -95 112 -95 39 0
38 1 20 -92 -12 -61 -18 -74 -69 -127 -32 -33 -57 -65 -57 -72 0 -15 -1 -16
78 72 37 42 52 68 57 100 13 78 20 70 17 -19 -2 -55 -15 -128 -33 -197 -34
-130 -35 -135 -10 -135 17 0 18 -8 15 -98 -2 -77 -1 -88 6 -52 5 25 9 66 9 91
1 25 4 48 7 52 3 3 27 -1 52 -9 26 -7 58 -13 72 -13 14 0 -8 10 -49 21 l-74
21 6 101 c4 56 9 152 13 214 4 65 11 108 15 100 5 -7 32 -70 60 -141 29 -70
56 -127 60 -127 5 0 5 10 0 23 -27 70 -87 208 -107 249 -23 46 -23 47 -4 53
61 19 119 128 106 198 -16 84 -136 137 -222 98z m130 -15 c49 -20 76 -60 76
-113 0 -51 -11 -76 -53 -120 -94 -100 -227 -46 -227 92 0 55 29 113 68 138 33
20 92 22 136 3z m-71 -698 c-3 -27 -10 -48 -14 -48 -12 0 -11 17 2 63 14 50
19 44 12 -15z"/>
<path d="M4732 975 c0 -16 2 -22 5 -12 2 9 2 23 0 30 -3 6 -5 -1 -5 -18z"/>
<path d="M4620 971 c0 -12 5 -21 10 -21 6 0 10 -9 10 -20 0 -19 -7 -20 -96
-20 l-95 0 2 -95 2 -95 70 0 c50 0 68 -3 65 -12 -3 -9 -26 -12 -76 -10 -72 4
-72 4 -72 -22 0 -16 -6 -26 -15 -26 -12 0 -15 -14 -15 -65 0 -51 3 -65 15 -65
12 0 15 -16 15 -80 0 -47 4 -80 10 -80 6 0 10 -4 10 -10 0 -5 -13 -10 -30 -10
-29 0 -30 -1 -30 -50 0 -37 4 -52 16 -57 11 -4 13 -13 9 -33 -4 -18 -1 -31 10
-40 25 -21 50 0 50 41 0 23 5 35 17 37 22 4 33 -15 18 -33 -16 -20 -5 -45 19
-45 30 0 52 27 45 56 -5 18 -2 24 10 24 14 0 16 -6 11 -34 -6 -28 -3 -36 14
-45 35 -19 65 3 58 44 -5 32 -4 34 25 33 23 -1 26 -3 14 -10 -18 -10 -22 -53
-6 -63 15 -9 47 3 54 21 3 9 1 24 -4 35 -7 13 -7 19 0 19 6 0 10 24 10 55 0
50 -2 55 -22 55 -22 0 -23 3 -20 85 3 65 7 85 18 85 11 0 14 15 14 65 0 50 -3
65 -14 65 -8 0 -16 10 -18 23 -2 14 -11 23 -25 25 -13 2 -23 8 -23 14 0 5 6 8
14 5 20 -8 22 5 18 105 -3 86 -4 87 -30 90 -23 3 -27 8 -28 38 0 25 -5 36 -17
38 -12 2 -17 -3 -17 -17z m74 -93 c3 -13 6 -51 6 -85 l0 -63 -115 1 -115 0 0
36 0 36 70 -7 70 -6 0 35 0 35 -69 0 c-51 0 -70 4 -74 14 -8 21 7 24 119 25
97 1 102 0 108 -21z m-154 -48 c0 -16 -7 -20 -35 -20 -28 0 -35 4 -35 20 0 16
7 20 35 20 28 0 35 -4 35 -20z m60 2 c0 -25 -7 -31 -31 -25 -29 8 -25 43 6 43
18 0 25 -5 25 -18z m60 -121 c0 -10 -40 -22 -52 -15 -18 11 -6 24 22 24 17 0
30 -4 30 -9z m-39 -31 l99 0 -1 -57 c-1 -32 -4 -46 -6 -30 -4 24 -8 27 -41 25
l-37 -1 33 -4 33 -4 -7 -72 c-3 -40 -9 -75 -13 -78 -3 -3 -25 -4 -48 -1 l-43
4 0 78 c0 74 1 79 23 83 19 4 18 4 -5 6 -27 1 -28 0 -30 -56 -1 -54 2 -116 5
-120 1 0 27 -3 57 -5 l55 -3 6 50 c6 47 6 46 7 -22 1 -39 5 -78 8 -87 5 -14
-10 -16 -127 -16 l-134 0 -2 151 c-2 83 0 156 3 161 4 6 20 7 36 4 17 -3 75
-6 129 -6z m-181 -96 c0 -24 -4 -44 -10 -44 -5 0 -10 23 -10 51 0 31 4 48 10
44 6 -3 10 -26 10 -51z m310 2 c0 -25 -4 -48 -10 -51 -6 -4 -10 13 -10 44 0
28 5 51 10 51 6 0 10 -20 10 -44z m-50 -235 c0 -7 -38 -11 -110 -11 -60 0
-110 3 -110 8 0 4 50 8 110 10 74 2 110 0 110 -7z m60 -38 c-1 -59 3 -58 -176
-60 l-164 -1 0 39 0 39 170 0 c155 0 170 -2 170 -17z m-298 -82 c-10 -6 -10
-10 3 -21 19 -15 20 -36 2 -43 -22 -8 -41 9 -32 29 5 11 7 25 6 32 -1 6 6 12
16 12 13 0 15 -2 5 -9z m105 3 c-3 -3 -12 -4 -19 -1 -8 3 -5 6 6 6 11 1 17 -2
13 -5z m1 -43 c-4 -20 -48 -28 -48 -9 0 20 20 37 37 31 8 -3 13 -13 11 -22z
m97 4 c0 -14 -8 -21 -27 -23 -28 -3 -33 4 -22 33 9 23 49 15 49 -10z m85 6 c0
-11 -5 -23 -11 -27 -15 -9 -33 12 -26 30 9 23 37 20 37 -3z"/>
<path d="M4450 189 c0 -5 5 -7 10 -4 6 3 10 8 10 11 0 2 -4 4 -10 4 -5 0 -10
-5 -10 -11z"/>
<path d="M4625 200 c-3 -5 1 -10 10 -10 9 0 13 5 10 10 -3 6 -8 10 -10 10 -2
0 -7 -4 -10 -10z"/>
<path d="M4720 200 c0 -5 5 -10 10 -10 6 0 10 5 10 10 0 6 -4 10 -10 10 -5 0
-10 -4 -10 -10z"/>
<path d="M4701 974 c0 -11 3 -14 6 -6 3 7 2 16 -1 19 -3 4 -6 -2 -5 -13z"/>
<path d="M4795 650 c16 -61 17 -136 1 -174 -12 -30 -13 -36 -2 -27 35 29 38
158 6 209 -9 14 -10 13 -5 -8z"/>
<path d="M4857 588 c6 -73 11 -83 12 -23 0 28 -3 56 -8 63 -5 8 -6 -8 -4 -40z"/>
<path d="M4907 573 c8 -50 13 -55 13 -10 0 20 -4 38 -9 42 -6 3 -7 -10 -4 -32z"/>
</g>
</svg>
